<?xml version="1.0" encoding="UTF-8" standalone="no"?>
<svg
    role="img"
    xmlns="http://www.w3.org/2000/svg"
    width="1000mm"
    height="1000mm"
    viewBox="0 0 1000 1000"
    style="max-width:1.6em; height: auto;">

    <path id="path" style="stroke: black; stroke-width: 15px;opacity:1;vector-effect:none;fill:#bf0c0c;fill-opacity:1;"
        d="M 300 54C 264 54 231 73 213 104C 213 104 13 450 13 450C -4 481 -4 519 13 550C 13 550 213 896 213 896C 231 927 264 946 300 946C 300 946 700 946 700 946C 736 946 769 927 787 896C 787 896 987 550 987 550C 1004 519 1004 481 987 450C 987 450 787 104 787 104C 769 73 736 54 700 54C 700 54 300 54 300 54C 300 54 300 54 300 54 M 525 225C 575 225 575 275 575 255C 575 275 575 550 575 550C 575 550 575 600 525 600C 525 600 475 600 475 600C 425 600 425 550 425 550C 425 550 425 275 425 275C 425 275 425 225 475 225C 475 225 475 225 525 225
        M 500 625C 520 625 539 633 553 647C 567 661 575 680 575 700C 575 741 541 775 500 775C 459 775 425 741 425 700C 425 680 433 661 447 647C 461 633 480 625 500 625C 500 625 500 625 500 625"
        transform="">
    </path>
</svg>