<?xml version="1.0" encoding="iso-8859-1"?>
<!-- Generator: Adobe Illustrator 16.0.0, SVG Export Plug-In . SVG Version: 6.00 Build 0)  -->
<!DOCTYPE svg PUBLIC "-//W3C//DTD SVG 1.1//EN" "http://www.w3.org/Graphics/SVG/1.1/DTD/svg11.dtd">
<svg version="1.1" id="Capa_1" xmlns="http://www.w3.org/2000/svg" xmlns:xlink="http://www.w3.org/1999/xlink" x="0px" y="0px"
	 width="66.109px" height="66.109px" viewBox="0 0 66.109 66.109" style="enable-background:new 0 0 66.109 66.109;"
	 xml:space="preserve">
<g>
	<g>
		<g>
			<g>
				<path d="M52.311,66.109c-0.005,0-0.013,0-0.02,0H13.346c-0.621,0-1.207-0.289-1.586-0.781c-0.378-0.492-0.507-1.133-0.347-1.732
					c0.55-2.065,13.49-50.68,15.78-57.185C28.162,3.659,29.792,0,32.755,0c2.94,0,4.552,3.597,5.508,6.303
					c2.405,6.803,14.717,52.655,15.89,57.024c0.103,0.24,0.158,0.506,0.158,0.783C54.311,65.215,53.416,66.109,52.311,66.109z
					 M15.95,62.109h33.733c-2.757-10.248-13.088-48.524-15.19-54.474c-0.789-2.231-1.424-3.138-1.737-3.482
					c-0.321,0.35-0.975,1.277-1.787,3.586C29.021,13.267,18.696,51.824,15.95,62.109z"/>
			</g>
		</g>
		<g>
			<path d="M59.055,66.109h-52c-1.104,0-2-0.895-2-2c0-1.104,0.896-2,2-2h52c1.104,0,2,0.896,2,2
				C61.055,65.215,60.158,66.109,59.055,66.109z"/>
		</g>
		<g>
			<path d="M48.055,53.109h-32c-0.553,0-1-0.447-1-1s0.447-1,1-1h32c0.553,0,1,0.447,1,1S48.607,53.109,48.055,53.109z"/>
		</g>
		<g>
			<path d="M45.055,38.109h-7c-0.553,0-1-0.447-1-1s0.447-1,1-1h7c0.553,0,1,0.447,1,1S45.607,38.109,45.055,38.109z"/>
		</g>
		<g>
			<path d="M34.054,38.109h-14c-0.553,0-1-0.447-1-1s0.447-1,1-1h14c0.553,0,1,0.447,1,1S34.606,38.109,34.054,38.109z"/>
		</g>
		<g>
			<path d="M41.055,23.109h-16c-0.553,0-1-0.447-1-1c0-0.553,0.447-1,1-1h16c0.553,0,1,0.447,1,1
				C42.055,22.662,41.607,23.109,41.055,23.109z"/>
		</g>
	</g>
</g>
<g>
</g>
<g>
</g>
<g>
</g>
<g>
</g>
<g>
</g>
<g>
</g>
<g>
</g>
<g>
</g>
<g>
</g>
<g>
</g>
<g>
</g>
<g>
</g>
<g>
</g>
<g>
</g>
<g>
</g>
</svg>
