<?xml version="1.0" encoding="UTF-8" standalone="no"?>
<!DOCTYPE svg PUBLIC "-//W3C//DTD SVG 1.1//EN" "http://www.w3.org/Graphics/SVG/1.1/DTD/svg11.dtd">
<svg version="1.1" xmlns="http://www.w3.org/2000/svg" xmlns:xlink="http://www.w3.org/1999/xlink"
     preserveAspectRatio="xMidYMid meet" viewBox="0 0 157 640" width="157" height="640">
    <defs>
        <path d="M145.98 0L157 17.2L157 107.41L143.88 107.41L143.88 132.59L133.4 145.17L137.59 478.04L143.88 489.23L143.88 522.1L157 527.69L157 590.63L143.88 590.63L133.4 640L27.8 640L15.21 590.63L0 590.63L0 527.69L15.21 522.1L15.21 489.23L24.3 478.04L22.21 145.17L12.42 132.59L12.42 107.41L0 107.41L0 17.2L12.42 0L145.98 0Z M157 15.66L0 15.66L157 15.66Z M157 93.99L0 93.99L157 93.99Z M157 84.9L0 84.9L157 84.9Z M143.88 107.27L13.12 107.27L143.88 107.27Z M143.88 131.75L13.12 131.75L143.88 131.75Z M133.4 145.03L21.51 145.03L133.4 145.03Z M137.59 479.58L23.6 479.58L137.59 479.58Z M143.88 489.37L15.91 489.37L143.88 489.37Z M143.88 508.25L15.91 508.25L143.88 508.25Z M143.88 522.24L15.91 522.24L143.88 522.24Z M157 534.13L0 534.13L157 534.13Z M157 539.72L0 539.72L157 539.72Z M143.88 591.47L15.91 591.47L143.88 591.47Z M141.79 598.46L15.91 598.46L141.79 598.46ZM34.79 640L23.6 598.46L34.79 640Z M125.75 640L134.75 598.46L125.75 640Z"></path>
    </defs>
    <g>
        <g>
            <g>
                <g>
                    <use xlink:href="#b2eCcGRY1Z" opacity="1" fill-opacity="0" stroke="#000000" stroke-width="1"
                         stroke-opacity="1"></use>
                </g>
            </g>
            <g>
                <g>
                    <use xlink:href="#a4LTifPU0U" opacity="1" fill-opacity="0" stroke="#000000" stroke-width="1"
                         stroke-opacity="1"></use>
                </g>
            </g>
            <g>
                <g>
                    <use xlink:href="#g1PxrFvj4V" opacity="1" fill-opacity="0" stroke="#000000" stroke-width="1"
                         stroke-opacity="1"></use>
                </g>
            </g>
            <g>
                <g>
                    <use xlink:href="#e8v5pUQ5z" opacity="1" fill-opacity="0" stroke="#000000" stroke-width="1"
                         stroke-opacity="1"></use>
                </g>
            </g>
            <g>
                <g>
                    <use xlink:href="#c5MWNSruOA" opacity="1" fill-opacity="0" stroke="#000000" stroke-width="1"
                         stroke-opacity="1"></use>
                </g>
            </g>
            <g>
                <g>
                    <use xlink:href="#c3qrOvxB71" opacity="1" fill-opacity="0" stroke="#000000" stroke-width="1"
                         stroke-opacity="1"></use>
                </g>
            </g>
            <g>
                <g>
                    <use xlink:href="#b1rq1e7GkN" opacity="1" fill-opacity="0" stroke="#000000" stroke-width="1"
                         stroke-opacity="1"></use>
                </g>
            </g>
            <g>
                <g>
                    <use xlink:href="#c1XemwFzIy" opacity="1" fill-opacity="0" stroke="#000000" stroke-width="1"
                         stroke-opacity="1"></use>
                </g>
            </g>
            <g>
                <g>
                    <use xlink:href="#a15Q9R3R1u" opacity="1" fill-opacity="0" stroke="#000000" stroke-width="1"
                         stroke-opacity="1"></use>
                </g>
            </g>
            <g>
                <g>
                    <use xlink:href="#hEJxkgtv2" opacity="1" fill-opacity="0" stroke="#000000" stroke-width="1"
                         stroke-opacity="1"></use>
                </g>
            </g>
            <g>
                <g>
                    <use xlink:href="#aD1iM6Tqs" opacity="1" fill-opacity="0" stroke="#000000" stroke-width="1"
                         stroke-opacity="1"></use>
                </g>
            </g>
            <g>
                <g>
                    <use xlink:href="#cbRcUCKCd" opacity="1" fill-opacity="0" stroke="#000000" stroke-width="1"
                         stroke-opacity="1"></use>
                </g>
            </g>
            <g>
                <g>
                    <use xlink:href="#a15sSeLoES" opacity="1" fill-opacity="0" stroke="#000000" stroke-width="1"
                         stroke-opacity="1"></use>
                </g>
            </g>
            <g>
                <g>
                    <use xlink:href="#a4gEwHBkB" opacity="1" fill-opacity="0" stroke="#000000" stroke-width="1"
                         stroke-opacity="1"></use>
                </g>
            </g>
            <g>
                <g>
                    <use xlink:href="#c39DhVf5p8" opacity="1" fill-opacity="0" stroke="#000000" stroke-width="1"
                         stroke-opacity="1"></use>
                </g>
            </g>
            <g>
                <g>
                    <use xlink:href="#e2b8BLAbf0" opacity="1" fill-opacity="0" stroke="#000000" stroke-width="1"
                         stroke-opacity="1"></use>
                </g>
            </g>
            <g>
                <g>
                    <use xlink:href="#cB7njchOa" opacity="1" fill-opacity="0" stroke="#000000" stroke-width="1"
                         stroke-opacity="1"></use>
                </g>
            </g>
            <g>
                <g>
                    <use xlink:href="#bzRyEOC3f" opacity="1" fill-opacity="0" stroke="#000000" stroke-width="1"
                         stroke-opacity="1"></use>
                </g>
            </g>
        </g>
    </g>
</svg>